<svg xmlns="http://www.w3.org/2000/svg" width="640" height="640" viewBox="0 0 640 640"><path d="m194.32,212.79c0,16.05-2.73,29.43-8.16,40.18-5.45,10.74-12.82,19.34-22.13,25.78-9.31,6.45-20.34,11.03-33.09,13.75-12.75,2.72-26.43,4.08-41.04,4.08-11.75,0-23.92-.64-36.52-1.93-12.61-1.29-25.07-3.22-37.38-5.8V30.61c10.02-1.72,21.05-3.22,33.09-4.51,12.03-1.29,23.91-1.93,35.66-1.93,20.05,0,36.38,2.08,48.98,6.23,12.6,4.16,22.48,9.6,29.65,16.33,7.16,6.73,12.03,14.25,14.61,22.56,2.58,8.31,3.87,16.62,3.87,24.92,0,12.61-3.08,23.78-9.24,33.51-6.16,9.74-14.39,17.48-24.71,23.2,18.05,6.59,30.29,15.47,36.74,26.64,6.44,11.17,9.67,22.92,9.67,35.23Zm-104.84-79.92c13.46,0,23.63-2.93,30.51-8.81,6.88-5.87,10.31-13.97,10.31-24.28,0-6.3-1.01-11.39-3.01-15.25-2.01-3.87-4.73-6.87-8.16-9.02-3.44-2.15-7.45-3.58-12.03-4.3-4.59-.71-9.31-1.07-14.18-1.07-4.01,0-8.16.15-12.46.43-4.3.29-8.16.72-11.6,1.29v61.01h20.62Zm-20.62,43.83v72.19c3.72.58,7.8,1.01,12.25,1.29,4.44.29,8.81.43,13.11.43,6.02,0,11.88-.5,17.62-1.5,5.73-1,10.81-2.86,15.25-5.59,4.44-2.72,8.09-6.59,10.96-11.6,2.86-5.01,4.3-11.39,4.3-19.12,0-12.89-4.08-22.13-12.25-27.71-8.16-5.59-19.12-8.38-32.87-8.38h-28.36Z" fill="#fff"/><path d="m230.84,293.14v-43.83h58.01V71h-58.01V27.17h168.86v43.83h-57.58v178.32h57.58v43.83h-168.86Z" fill="red"/><path d="m556.54,67.13c-12.61,0-23.2,2.3-31.8,6.88-8.59,4.59-15.68,10.96-21.27,19.12-5.59,8.16-9.6,17.91-12.03,29.22-2.44,11.32-3.65,23.85-3.65,37.6,0,31.8,5.01,55.21,15.04,70.25,10.02,15.04,24.77,22.56,44.26,22.56,3.15,0,6.59-.14,10.31-.43,3.72-.28,7.16-.71,10.31-1.29v-97.11h52.85v132.77c-6.3,2.3-16.11,4.87-29.43,7.73-13.32,2.86-29.43,4.3-48.34,4.3-16.62,0-31.58-2.94-44.9-8.81-13.32-5.87-24.71-14.61-34.16-26.21-9.45-11.6-16.76-26.06-21.91-43.4-5.16-17.33-7.73-37.45-7.73-60.37s3.01-42.61,9.02-59.94c6.02-17.33,14.18-31.86,24.49-43.61,10.31-11.74,22.48-20.55,36.52-26.42,14.03-5.87,29.07-8.81,45.12-8.81,10.31,0,19.55.79,27.72,2.36,8.16,1.58,15.25,3.37,21.27,5.37,6.02,2.01,10.96,4.16,14.82,6.44,3.87,2.3,6.8,4.01,8.81,5.16l-13.75,42.11c-6.3-4.01-14.04-7.59-23.2-10.74-9.17-3.15-18.62-4.73-28.36-4.73Z" fill="#fff"/><path d="m190.45,615.41H23.3v-265.97h53.28v222.15h113.87v43.83Z" fill="#fff"/><path d="m361.89,615.41l-12.46-61.45h-70.9l-12.03,61.45h-55c12.6-52.42,25.35-100.18,38.24-143.3,12.89-43.11,25.35-84,37.38-122.67h57.58c12.6,38.96,25.14,80.28,37.6,123.96,12.46,43.69,24.56,91.02,36.31,142.01h-56.72Zm-47.26-214.41c-2.87,10.03-5.52,19.55-7.95,28.57-2.44,9.02-4.73,17.91-6.87,26.64-2.15,8.74-4.16,17.55-6.02,26.43-1.87,8.88-3.65,18.05-5.37,27.5h51.99c-1.72-9.45-3.44-18.62-5.16-27.5-1.72-8.88-3.65-17.68-5.8-26.43-2.15-8.73-4.44-17.62-6.88-26.64-2.44-9.02-5.09-18.54-7.95-28.57Z" fill="red"/><path d="m624,535.06c0,16.05-2.73,29.43-8.16,40.18-5.45,10.74-12.82,19.33-22.13,25.78-9.31,6.44-20.34,11.03-33.09,13.75-12.75,2.72-26.43,4.08-41.04,4.08-11.75,0-23.92-.64-36.52-1.93-12.61-1.29-25.07-3.22-37.38-5.8v-258.24c10.02-1.72,21.05-3.22,33.09-4.51,12.03-1.29,23.91-1.93,35.66-1.93,20.05,0,36.38,2.08,48.98,6.23,12.6,4.16,22.48,9.6,29.65,16.33,7.16,6.73,12.03,14.25,14.61,22.56,2.58,8.31,3.87,16.62,3.87,24.92,0,12.61-3.08,23.78-9.24,33.51-6.16,9.74-14.39,17.48-24.71,23.2,18.05,6.59,30.29,15.47,36.74,26.64,6.44,11.17,9.67,22.92,9.67,35.23Zm-104.84-79.92c13.46,0,23.63-2.93,30.51-8.81,6.88-5.87,10.31-13.97,10.31-24.28,0-6.3-1.01-11.39-3.01-15.25-2.01-3.87-4.73-6.87-8.16-9.02-3.44-2.15-7.45-3.58-12.03-4.3-4.59-.71-9.31-1.07-14.18-1.07-4.01,0-8.16.15-12.46.43-4.3.29-8.16.72-11.6,1.29v61.01h20.62Zm-20.62,43.83v72.19c3.72.58,7.8,1.01,12.25,1.29,4.44.29,8.81.43,13.11.43,6.02,0,11.88-.5,17.62-1.5,5.73-1,10.81-2.86,15.25-5.59,4.44-2.72,8.09-6.59,10.96-11.6,2.86-5.01,4.3-11.39,4.3-19.12,0-12.89-4.08-22.13-12.25-27.71-8.16-5.59-19.12-8.38-32.87-8.38h-28.36Z" fill="#fff"/></svg>